
        <svg xmlns="http://www.w3.org/2000/svg" xmlns:xlink="http://www.w3.org/1999/xlink" version="1.1" width="3140.4957249299982" 
        height="3188.90199849203" viewBox="0 0 3140.4957249299982 3188.90199849203">
			<rect fill="#f6f6f6" width="3140.4957249299982" height="3188.90199849203"/>
			<g transform="scale(9.445099924601498) translate(10, 10)">
				<defs id="SvgjsDefs1609"></defs><g id="SvgjsG1610" featureKey="rootContainer" transform="matrix(1.679851890870981,0,0,1.679851890870981,0.0005871445827524324,0.0002897674663174521)" fill="#111111"><path xmlns="http://www.w3.org/2000/svg" d="M17.914 148.907zM22.657 154.94a90.586 90.586 0 0 0 5.861 6.251c6.914 6.805 15.159 12.525 24.004 16.851 3.259 1.526 6.265 3.107 9.787 4.468.88.338 1.779.7 2.724 1.026.953.302 1.941.604 2.974.903 1.027.321 2.122.549 3.267.786 1.146.23 2.336.493 3.614.624a91.24 91.24 0 0 1-18.434-5.99 93.833 93.833 0 0 1-16.873-9.842c-10.548-7.727-19.57-17.648-26.16-28.989-.272-.339-.685-.985-1.18-1.808l-.796-1.348-.803-1.551c-.534-1.076-1.149-2.168-1.62-3.226a71.281 71.281 0 0 0-1.326-2.748c2.048 5.101 4.412 9.563 7.059 13.806a93.473 93.473 0 0 0 3.869 5.697c-.192-.259-.392-.511-.583-.771a95.012 95.012 0 0 0 4.6 5.841l.016.02zM18.039 149.078l-.125-.17.125.17zM1.335 106.042l-.483-3.875c.256 2.365.553 5.008 1.096 7.654l-.327-1.879a23.961 23.961 0 0 1-.286-1.9zM85.812 185.575c6.652.673 13.628.472 20.461-.609 6.837-1.077 13.524-2.987 19.741-5.449-11.45 4.503-23.602 6.506-35.49 6.171-1.591-.025-3.159 0-4.712-.113z"></path><path xmlns="http://www.w3.org/2000/svg" d="M46.426 171.967l-.259-.165c.087.055.172.111.259.165zM46.167 171.802zM43.653 170.135zM56.077 177.284A83.837 83.837 0 0 0 73.2 183.1c-9.688-2.21-18.805-6.109-26.774-11.133 3.06 1.947 6.277 3.749 9.651 5.317zM177.002 107.094c.098-1.58.296-3.238.346-4.027.594-5.071.77-9.401.745-13.745-.11-.783-.425-2.25-.55-3.918-.153-1.672-.378-3.309-.568-4.924-.289-1.601-.538-3.186-.854-4.74 2.275 11.617 2.237 23.279.144 34.282a94.97 94.97 0 0 1 .737-2.928z"></path><path xmlns="http://www.w3.org/2000/svg" d="M.887 83.482c.848-6.9 2.653-13.626 4.37-18.107l-.695 3.28c.429-.961 1.122-3.194 2.067-5.557l.682-1.802.753-1.747c.5-1.131.92-2.203 1.363-3.025-.303.771-.595 1.602-.947 2.436-.345.837-.732 1.687-1.101 2.542l1.514-3.409A111.863 111.863 0 0 0 4.954 69.8c-1.133 4.352-2.029 8.926-2.511 13.032-.14 1.024-.189 2.024-.28 2.978-.067.954-.183 1.864-.192 2.724-.042 1.719-.1 3.224-.071 4.428.105 2.409.25 3.61.459 2.939.411-1.333.403-8.188 1.837-16.767.767-4.276 1.868-8.966 3.362-13.561 1.483-4.599 3.427-9.058 5.44-12.992l-.592 1.292-.545 1.331-1.116 2.691-1.024 2.78-.521 1.402c-.153.476-.308.954-.461 1.434-1.32 3.807-2.307 7.816-3.167 11.857l-.559 3.052c-.205 1.014-.292 2.046-.444 3.067-.318 2.041-.434 4.097-.611 6.129-.199 4.074-.239 8.098.13 11.946-.015-.914-.03-1.726-.017-2.512l.115-2.355c.048-.809.039-1.667.115-2.65.07-.983.134-2.091.19-3.402.391-6.608 1.572-13.15 3.408-19.481 1.75-6.358 3.814-11.957 6.889-17.03l.801-1.526c.542-1.024.993-2.034 1.566-3.064.653-1.13 1.278-1.976 1.784-2.751.521-.767.963-1.441 1.469-2.095l3.682-5.082c.075-.009-.022.185-.2.473a28.962 28.962 0 0 1 1.959-2.49c.755-.875 1.488-1.803 2.109-2.569.146-.007.288-.011.623-.251 8.65-9.197 19.295-16.692 31.291-21.417l2.667-1.039 2.7-.899 1.343-.448 1.36-.38 2.71-.753c1.55-.373 3.12-.751 4.721-1.091l2.437-.426c.819-.141 1.642-.3 2.484-.378 1.674-.201 3.134-.625 3.921-.729 4.369-.249 8.73-.199 13.849.216.397.007 1.015.043 1.732.082.717.041 1.537.061 2.332.134.932.21 1.927.418 2.971.621 6.369.988 12.527 2.754 18.386 5.103l-.007-.028 2.244.894 2.29 1.058c1.571.684 3.11 1.559 4.7 2.383.798.407 1.554.904 2.338 1.354.77.474 1.576.894 2.32 1.412 1.508 1.002 3.037 1.961 4.446 3.032a99.912 99.912 0 0 1 6.6 5.198c.046.042.094.081.14.122l.042.038 1.457 1.322 1.394 1.391 1.395 1.392c.462.467.89.967 1.337 1.449-.216-.35-.208-.491-.2-.63-.689-.66-1.504-1.441-2.309-2.21 1.343 1.222 2.515 2.327 3.477 3.229.371.474.776.94 1.16 1.449l1.186 1.566 1.261 1.629 1.255 1.752c2.226 2.838 4.191 5.874 6.057 8.97.864 1.588 1.817 3.131 2.586 4.774l1.213 2.436 1.092 2.497c.314.533.192.022.231-.068 1.225 2.962 2.21 6.042 3.102 9.146a88.212 88.212 0 0 1 3.408 17.211c.225 1.378.321 2.772.52 4.153l-.123 2.924c-.001 1.103.057 2.206.01 3.311l-.128 3.326c-.016.75-.124 1.569-.187 2.459-.084.888-.128 1.846-.256 2.856l-.412 3.192c-.132 1.119-.387 2.269-.583 3.471a90.635 90.635 0 0 1-4.312 15.482c-.242.826-.427 1.486-.592 1.855-.627 1.501-1.296 2.954-1.942 4.385-.723 1.394-1.386 2.788-2.127 4.108a86.09 86.09 0 0 1-7.949 12.379c-.336.439-.649.885-.987 1.297l-.998 1.206c-.66.779-1.25 1.558-1.876 2.234-1.251 1.352-2.301 2.606-3.286 3.549-1.128 1.178-1.027 1.233-.246.665a35.07 35.07 0 0 0 1.608-1.262l2.122-1.914c.776-.677 1.519-1.441 2.235-2.161.708-.725 1.416-1.386 1.962-1.984 1.101-1.191 1.824-1.926 1.67-1.599-1.777 3.345-5.013 7.471-9.743 12.035-2.413 2.227-5.128 4.647-8.339 6.98-1.566 1.221-3.307 2.338-5.082 3.558-1.834 1.123-3.708 2.353-5.757 3.445-4.484 2.442 3.365-1.475 3.577-1.512a22.87 22.87 0 0 1-2.377 1.64c-1.478.786-2.943 1.597-4.474 2.273-.895.411-1.774.855-2.679 1.239l-2.729 1.122 1.444-.568c2.952-1.173 5.711-2.555 8.202-3.922-.936.566-1.96 1.221-3.082 1.812-1.203.622-2.448 1.302-3.697 1.909l-3.625 1.686c12.968-4.711 24.885-12.507 34.319-22.67 4.723-5.066 8.935-10.631 12.369-16.651a93.904 93.904 0 0 0 8.288-18.999c-3.154 9.93-8.071 19.052-13.981 26.765 10.744-14.507 17.15-32.293 17.999-50.636-.001 1.011-.101 2.018-.168 3.025-.083 1.007-.123 2.018-.241 3.022-.257 2.005-.441 4.021-.827 6.009-.624 4-1.636 7.931-2.782 11.815 2.262-7.021 3.613-14.424 4.145-21.869.554-7.451.092-14.947-1.057-22.211 1.974 9.622 2.301 20.524.619 31.298 1.182-6.949 1.482-14.112 1.028-21.214-.102-2.713-.422-5.407-.685-7.901-.377-2.476-.662-4.762-1.027-6.611 1.445 6.826 2.015 12.648 2.293 18.136-.267-11.977-2.748-24.112-7.62-35.511 2.659 6.191 4.842 12.851 6.175 19.698 1.34 6.84 1.897 13.838 1.58 20.57-.015-.788.018-1.575-.028-2.366l-.107-2.391c.287 10.85-1.384 21.604-4.696 31.717-1.662 5.056-3.715 9.969-6.2 14.644a95.521 95.521 0 0 1-8.56 13.316c3.673-4.29 7.551-10.354 10.646-17.015 3.081-6.675 5.368-13.894 6.941-20.199-2.314 11.322-6.907 22.494-13.571 32.471-6.646 9.985-15.351 18.764-25.423 25.502-10.06 6.759-21.474 11.437-33.187 13.748a94.608 94.608 0 0 1-17.657 1.809 94.462 94.462 0 0 1-17.361-1.515l3.005.571c1.002.19 2.018.295 3.026.445 2.016.324 4.055.446 6.087.633 4.073.229 8.168.306 12.25-.005 4.089-.217 8.152-.827 12.196-1.572 2.006-.456 4.036-.829 6.017-1.414.994-.278 2-.521 2.987-.83l2.955-.958c-1.492.462-3.062 1.074-4.739 1.523l-2.101.618a91.772 91.772 0 0 0 12.91-4.496 89.46 89.46 0 0 0 5.651-2.705 96.653 96.653 0 0 1-10.714 4.872 98.407 98.407 0 0 1-21.66 5.382c-1.11.176-2.122.231-3.029.326l-2.428.24c-1.429.113-2.484.164-3.222.245-1.477.147-1.687.284-1.099.397.587.113 1.971.203 3.673.251 1.697-.01 3.71-.101 5.541-.268 18.397-1.887 35.288-9.107 48.824-19.916 13.545-10.811 23.919-25.172 29.701-41.467.363-.946.642-1.922.944-2.89.293-.971.617-1.932.882-2.912.491-1.97 1.072-3.917 1.448-5.917l.619-2.985.487-3.012.241-1.507.172-1.517.342-3.034c.698-8.114.422-16.315-.812-24.363-.66-4.554-1.82-9.961-3.315-14.777l-1.15-3.484c-.4-1.107-.825-2.151-1.203-3.133l-.557-1.415-.571-1.271-.981-2.124c-3.134-6.359-7.072-12.424-11.682-18.065-4.605-5.643-9.896-10.868-15.861-15.418l-2.244-1.703-2.327-1.608-1.166-.806-1.203-.756-2.417-1.508c-3.295-1.904-6.67-3.739-10.228-5.261-3.521-1.598-7.206-2.895-10.957-4.055-1.895-.52-3.781-1.1-5.724-1.499-.968-.209-1.928-.463-2.907-.638l-2.944-.521C100.363.01 93.04-.285 85.724.265 78.412.83 71.069 2.218 64.028 4.614l-2.635.913c-.881.297-1.73.682-2.597 1.019-.858.359-1.735.673-2.577 1.069l-2.532 1.173c-.852.376-1.675.808-2.496 1.245l-2.469 1.297-2.402 1.412c-.8.472-1.606.933-2.372 1.458l-2.324 1.528c-.782.497-1.506 1.078-2.261 1.612-.741.554-1.51 1.07-2.226 1.654l-2.157 1.737c-.729.565-1.417 1.178-2.103 1.792l-2.063 1.83-1.971 1.919c-.656.639-1.319 1.271-1.93 1.951-5.031 5.298-9.451 11.078-13.066 17.194A99.518 99.518 0 0 0 5.18 64.379C.805 77.299-.45 90.402.134 102.237c-.126-4.872-.147-11.859.753-18.755zm141.132 90.446a96.807 96.807 0 0 0 8.765-6.389c-2.84 2.339-5.758 4.499-8.765 6.389zm40.217-54.282c-.299.901-.552 1.791-.882 2.641l-.957 2.523-.466 1.248-.513 1.231a108.54 108.54 0 0 0-.997 2.501 97.307 97.307 0 0 1-6.587 13.35c-2.521 4.275-5.443 8.281-8.565 12.04-1.542 1.899-3.222 3.66-4.874 5.421l-2.581 2.523c-.847.848-1.774 1.604-2.652 2.404-.736.64-1.478 1.266-2.225 1.882a90.696 90.696 0 0 0 7.896-7.312 89.808 89.808 0 0 1-11.689 10.188c-1.036.722-2.037 1.496-3.113 2.176l-3.247 2.069-3.43 1.949c-1.167.648-2.399 1.224-3.634 1.855a74.206 74.206 0 0 1 2.685-1.508c1.021-.567 2.092-1.237 3.138-1.85 1.054-.601 2.012-1.261 2.808-1.813.796-.552 1.42-1.01 1.745-1.306-.464.315-.936.617-1.406.924a92.477 92.477 0 0 0 1.507-1.015c-.021.023-.065.059-.101.091 10.932-7.466 20.245-17.277 27.223-28.462 7.009-11.175 11.57-23.781 13.46-36.601-.41 5.142-1.352 9.248-2.543 12.851zm-6.654-65.352zm-8.448-12.698a92.37 92.37 0 0 1 7.773 14.352c.25.549.486 1.106.719 1.664 4.963 12.154 7.221 25.192 6.89 38.036.084-4.25-.198-8.498-.669-12.71-.533-4.854-1.518-9.65-2.824-14.341-2.562-9.407-6.723-18.323-12.005-26.451.485.67.996 1.396 1.525 2.166a32.826 32.826 0 0 1 1.59 2.463l-.638-1.109-.689-1.079-1.378-2.156c-.938-1.424-1.955-2.796-2.934-4.192-1.062-1.334-2.069-2.712-3.174-4.011-.836-.953-1.637-1.938-2.485-2.879 2.992 3.155 5.801 6.54 8.299 10.247zM96.886 1.152c1.467.078 2.937.221 4.407.331 1.204.101 2.402.279 3.588.413.356.015.732.039 1.204.092.471.065 1.034.186 1.769.354 5.469.912 10.459 2.283 14.001 3.699 6.798 2.573 13.123 5.774 18.86 9.471 5.739 3.69 10.889 7.887 15.246 12.471 2.008 2.179 1.422 1.704.315.646l1.662 1.764c-.736-.734-1.459-1.478-2.206-2.196l-2.301-2.09c.56.49 1.918 1.663 2.845 2.522-7.389-7.539-16.026-13.799-25.375-18.404-9.356-4.603-19.431-7.446-29.502-8.581 1.618.18 2.412.22 3.168.24-1.085-.127-2.173-.301-3.274-.401-1.479-.097-2.955-.229-4.423-.301l-4.36-.103c1.444-.001 2.907.039 4.376.073z"></path><path xmlns="http://www.w3.org/2000/svg" d="M115.942 184.69l.426-.125c-.446.12-.885.252-1.334.366.304-.076.609-.15.908-.241zM160.424 146.151c4.235-5.587 7.977-12.263 10.366-18.014l-.029.006c-6.061 14.322-15.892 26.66-28.16 35.744a159.12 159.12 0 0 0 6.418-4.703c2.698-2.82 7.213-7.406 11.405-13.033zM35.35 162.846c7.172 6.412 15.821 11.992 25.448 15.751 3.754 1.413 7.585 2.651 11.503 3.523 1.944.502 3.929.812 5.899 1.181.987.175 1.987.272 2.979.412.994.129 1.986.275 2.987.333-4.519-.501-9.005-1.251-13.372-2.44-4.364-1.185-8.642-2.65-12.769-4.449a97.4 97.4 0 0 1-11.894-6.314c-3.786-2.408-7.376-5.097-10.781-7.997zM123.877 174.277l-2.219.871-2.266.756c-1.5.54-3.047.944-4.59 1.373 1.551-.39 3.111-.754 4.624-1.254l2.283-.698 2.23-.815c-.086-.044-.594.055-.062-.233zM97.683 179.965c-1.16.099-2.326.09-3.494.102-1.168.014-2.338.039-3.509-.038l1.576.148c.482.031.916.068 1.295.113 1.381-.118 2.752-.151 4.132-.325zM51.441 169.209c1.341.787 2.765 1.48 4.178 2.244.354.194.996.415 1.801.709-1.721-.739-3.37-1.655-5.046-2.505-.83-.441-1.629-.935-2.443-1.395-.812-.464-1.621-.927-2.389-1.445l.937.626.977.584 1.985 1.182z"></path></g><g id="SvgjsG1611" featureKey="symbolFeature-0" transform="matrix(1.784036472352076,0,0,1.784036472352076,73.31627202363978,27.005532238954068)" fill="#111111"><g xmlns="http://www.w3.org/2000/svg"><g><path d="M74.314,72.077L58.477,34.46c-0.103-0.23-0.21-0.458-0.318-0.688c-0.566-1.2-1.101-2.333-1.119-4.167    c-0.012-1.217-0.416-2.197-1.067-2.955c-0.025-0.037-0.053-0.072-0.084-0.105l-6.17-6.403l-0.205-0.236    c-1.871-2.146-5.554-2.369-8.068-1.488c-2.336,0.816-3.727,2.446-3.815,4.47c-0.052,1.172-0.254,2.197-1.133,3.962    c-0.948,1.89-18.099,36.223-18.099,36.223c-0.113,0.226-0.104,0.493,0.023,0.711l5.308,9.069c0.134,0.229,0.38,0.37,0.645,0.37    c0.008,0,0.017,0,0.025,0c0.274-0.009,0.521-0.168,0.644-0.414c0,0,18.267-36.688,19.217-38.582    c0.996-1.996,1.232-3.226,1.289-4.562c0.104-2.354,2.915-3.587,5.431-3.535c2.091,0.035,4.542,0.972,4.566,3.49    c0.022,2.161,0.68,3.557,1.262,4.79c0.103,0.22,0.207,0.438,0.298,0.644l15.831,37.603c0.16,0.379,0.597,0.56,0.979,0.399    C74.296,72.896,74.474,72.458,74.314,72.077z M51.005,24.636c-3.275-0.045-6.804,1.665-6.95,4.965    c-0.05,1.171-0.251,2.193-1.132,3.958c-0.845,1.686-15.408,30.932-18.603,37.348l-4.405-7.527    c1.835-3.672,17.027-34.082,17.918-35.86c0.993-1.996,1.229-3.226,1.29-4.564c0.086-1.962,1.998-2.84,2.816-3.126    c2.374-0.832,5.206-0.366,6.446,1.059l3.667,3.83C51.705,24.669,51.355,24.642,51.005,24.636z"></path><path d="M54.459,30.37c-0.103-0.314-0.441-0.486-0.754-0.382c-0.314,0.103-0.485,0.441-0.382,0.754l13.75,41.918    c0.083,0.252,0.316,0.411,0.568,0.411c0.062,0,0.124-0.009,0.186-0.029c0.314-0.103,0.485-0.44,0.382-0.754L54.459,30.37z"></path><path d="M47.458,30.053c-0.313-0.098-0.651,0.072-0.752,0.386L33.034,72.831c-0.101,0.313,0.071,0.651,0.386,0.752    c0.061,0.02,0.123,0.029,0.183,0.029c0.253,0,0.488-0.161,0.569-0.414l13.671-42.393C47.945,30.492,47.773,30.155,47.458,30.053z"></path><path d="M52.148,30.359c-0.325,0.057-0.544,0.366-0.487,0.691l7.383,42.525c0.051,0.291,0.303,0.496,0.588,0.496    c0.034,0,0.068-0.003,0.103-0.009c0.325-0.057,0.544-0.366,0.487-0.691l-7.383-42.524C52.782,30.521,52.473,30.302,52.148,30.359z    "></path><path d="M49.059,30.354c-0.33-0.051-0.632,0.173-0.683,0.498l-6.713,42.994c-0.051,0.327,0.172,0.633,0.499,0.684    c0.031,0.005,0.062,0.007,0.093,0.007c0.29,0,0.544-0.21,0.59-0.505l6.712-42.994C49.609,30.71,49.385,30.405,49.059,30.354z"></path><path d="M50.603,30.425c-0.331,0.004-0.596,0.274-0.592,0.604l0.438,43.31c0.003,0.328,0.271,0.592,0.598,0.592    c0.001,0,0.004,0,0.006,0c0.33-0.003,0.595-0.274,0.592-0.604l-0.438-43.31C51.204,30.688,50.955,30.437,50.603,30.425z"></path></g></g></g><g id="SvgjsG1612" featureKey="nameFeature-0" transform="matrix(1.3457139454371476,0,0,1.3457139454371476,52.77028704429998,166.46629041597708)" fill="#111111"><path d="M22.24 25.36 c2.64 1.28 4.36 3.56 4.36 6.64 c0 5.04 -3.72 8 -9.8 8 l-14.4 0 l0 -28 l13.68 0 c5.72 0 9.52 3.08 9.52 7.6 c0 2.6 -1.28 4.56 -3.36 5.76 z M16.08 17.68 l-7.2 0 l0 5.6 l7.2 0 c1.76 0 3.04 -1.28 3.04 -2.88 s-1.28 -2.76 -3.04 -2.72 z M16.8 34.28 c2.04 0 3.2 -1.28 3.2 -2.92 c0 -1.72 -1.16 -2.88 -3.2 -2.88 l-7.92 0 l0 5.8 l7.92 0 z M38.09 40.56 c-6.36 0 -10.96 -4.64 -10.96 -10.76 s4.6 -10.76 10.96 -10.76 s10.96 4.64 10.96 10.76 s-4.6 10.76 -10.96 10.76 z M38.09 34.8 c2.92 0 4.76 -2.12 4.76 -5 s-1.84 -5 -4.76 -5 s-4.76 2.12 -4.76 5 s1.84 5 4.76 5 z M60.53999999999999 40.56 c-6.36 0 -10.96 -4.64 -10.96 -10.76 s4.6 -10.76 10.96 -10.76 s10.96 4.64 10.96 10.76 s-4.6 10.76 -10.96 10.76 z M60.53999999999999 34.8 c2.92 0 4.76 -2.12 4.76 -5 s-1.84 -5 -4.76 -5 s-4.76 2.12 -4.76 5 s1.84 5 4.76 5 z M86.59 40 l-5 -7.08 l-1.96 2.24 l0 4.84 l-6.4 0 l0 -29.2 l6.4 0 l0 16.28 l6.12 -7.48 l7.36 0 l-7.56 8.72 l8.24 11.68 l-7.2 0 z M103.12 40.56 c-6.64 0 -11.2 -4.36 -11.2 -10.72 c0 -6.12 4.28 -10.8 10.8 -10.8 c6.76 0 10.68 4.68 10.68 10.56 c0 0.72 -0.04 1.44 -0.16 2.12 l-15.08 0 c0.4 1.92 1.8 3.52 5.08 3.52 c2.16 0 3.4 -0.84 4.08 -2.08 l5.76 1.68 c-1.08 2.52 -4.52 5.72 -9.96 5.72 z M98.16 27.880000000000003 l9 0 c-0.2 -1.84 -1.84 -3.48 -4.48 -3.48 s-4.24 1.76 -4.52 3.48 z M121.52999999999999 22.36 c1.2 -2.2 3.4 -3.44 6.4 -3.04 l0 6 c-4.32 -0.72 -6.4 1.12 -6.4 6.16 l0 8.52 l-6.4 0 l0 -20.4 l6.4 0 l0 2.76 z M144.17999999999998 19.6 l6.84 0 l-12.12 28.8 l-6.52 0 l3.64 -8.88 l0.28 -0.04 l-0.28 0.04 l-9.16 -19.92 l7 0 l5.32 12.44 z"></path></g><g id="SvgjsG1613" featureKey="sloganFeature-0" transform="matrix(0.8321197645029709,0,0,0.8321197645029709,75.41751592677655,237.50655358911246)" fill="#111111"><path d="M6.88 20.26 c-3.18 0 -5.46 -1.98 -6.18 -4.2 l1.52 -0.46 c0.62 1.78 2.36 3.22 4.74 3.22 c2.24 0 3.66 -1.3 3.66 -2.62 c0 -1.08 -0.66 -1.76 -2.56 -2.36 l-3.5 -1.12 c-1.86 -0.6 -3.1 -1.58 -3.1 -3.28 c0 -1.98 1.96 -3.7 4.68 -3.7 c2.92 0 4.9 1.54 5.7 3.4 l-1.48 0.46 c-0.68 -1.46 -2.18 -2.42 -4.24 -2.42 c-1.82 0 -3.06 1.04 -3.06 2.22 c0 0.94 0.6 1.5 2.18 2 l3.4 1.08 c2.18 0.7 3.56 1.56 3.56 3.64 c0 2.24 -2.16 4.14 -5.32 4.14 z M14.620000000000001 14.46 l0 -1.32 l7.1 0 l0 1.32 l-7.1 0 z M33.38 12.68 c1.56 0.54 2.5 1.8 2.5 3.44 c0 2.16 -1.64 3.88 -4.46 3.88 l-6.8 0 l0 -14 l6.34 0 c2.5 0 4.3 1.5 4.34 3.64 c0.02 1.44 -0.7 2.48 -1.92 3.04 z M30.900000000000002 7.42 l-4.7 0 l0 4.74 l4.88 0 c1.66 0 2.66 -1.1 2.64 -2.38 c0 -1.36 -1.08 -2.38 -2.82 -2.36 z M31.36 18.58 c1.84 0 2.94 -1.18 2.94 -2.58 c0 -1.28 -1.02 -2.54 -2.9 -2.54 l-5.2 0 l0 5.12 l5.16 0 z M39.86 11.74 c0.6 -1.3 1.82 -2.08 3.58 -1.84 l0 1.44 c-2.16 -0.28 -3.58 0.86 -3.58 4 l0 4.66 l-1.54 0 l0 -9.98 l1.54 0 l0 1.72 z M50.019999999999996 20.26 c-3.06 0 -5.26 -2.06 -5.26 -5.26 c0 -2.94 2.04 -5.22 5.08 -5.22 c3.18 0 5 2.22 5 5 c0 0.28 0 0.46 -0.04 0.72 l-8.52 0 c0.14 2 1.52 3.4 3.74 3.4 c1.72 0 2.82 -0.92 3.3 -1.94 l1.42 0.42 c-0.66 1.42 -2.18 2.88 -4.72 2.88 z M46.28 14.36 l7.04 -0.02 c-0.14 -1.86 -1.38 -3.2 -3.48 -3.2 c-2.02 0 -3.42 1.48 -3.56 3.22 z M61.6 20.26 c-2.88 0 -5.04 -2.26 -5.04 -5.26 s2.16 -5.22 5.04 -5.22 c1.78 0 3.14 0.8 3.94 2.04 l0 -1.8 l1.54 0 l0 9.98 l-1.54 0 l0 -1.82 c-0.8 1.28 -2.16 2.08 -3.94 2.08 z M61.82 18.86 c2.06 0 3.76 -1.64 3.76 -3.84 s-1.7 -3.84 -3.76 -3.84 c-2.2 0 -3.74 1.62 -3.74 3.84 c0 2.2 1.54 3.84 3.74 3.84 z M78.42 5.4 l1.54 0 l0 14.6 l-1.54 0 l0 -1.82 c-0.8 1.28 -2.16 2.08 -3.94 2.08 c-2.88 0 -5.04 -2.26 -5.04 -5.26 s2.16 -5.22 5.04 -5.22 c1.78 0 3.14 0.8 3.94 2.04 l0 -6.42 z M74.7 18.86 c2.06 0 3.76 -1.64 3.76 -3.84 s-1.7 -3.84 -3.76 -3.84 c-2.2 0 -3.74 1.62 -3.74 3.84 c0 2.2 1.54 3.84 3.74 3.84 z M97.83999999999999 20 l-5.4 -6.6 l-2.7 2.94 l0 3.66 l-1.6 0 l0 -14 l1.6 0 l0 8.2 l7.5 -8.2 l2.04 0 l-5.78 6.28 l6.3 7.72 l-1.96 0 z M106.93999999999998 9.78 c2.48 0 4 1.62 4 4.36 l0 5.86 l-1.54 0 l0 -5.64 c0 -1.94 -0.98 -3.14 -2.8 -3.14 c-2 0 -3.36 1.52 -3.36 3.76 l0 5.02 l-1.54 0 l0 -9.98 l1.54 0 l0 1.76 c0.7 -1.14 1.96 -2 3.7 -2 z M118.47999999999999 20.26 c-3.02 0 -5.28 -2.28 -5.28 -5.26 s2.26 -5.22 5.28 -5.22 s5.26 2.24 5.26 5.22 s-2.24 5.26 -5.26 5.26 z M118.47999999999999 18.84 c2.14 0 3.74 -1.64 3.74 -3.82 s-1.6 -3.84 -3.74 -3.84 c-2.16 0 -3.78 1.66 -3.78 3.84 s1.62 3.82 3.78 3.82 z M138.14 10.02 l1.6 0 l-3.42 9.98 l-1.5 0 l-2.52 -7.68 l-2.54 7.68 l-1.5 0 l-3.44 -9.98 l1.62 0 l2.62 8.02 l2.56 -8.02 l1.34 0 l2.56 8.02 z M141.48 20 l0 -14.6 l1.54 0 l0 14.6 l-1.54 0 z M150.64 20.26 c-3.06 0 -5.26 -2.06 -5.26 -5.26 c0 -2.94 2.04 -5.22 5.08 -5.22 c3.18 0 5 2.22 5 5 c0 0.28 0 0.46 -0.04 0.72 l-8.52 0 c0.14 2 1.52 3.4 3.74 3.4 c1.72 0 2.82 -0.92 3.3 -1.94 l1.42 0.42 c-0.66 1.42 -2.18 2.88 -4.72 2.88 z M146.89999999999998 14.36 l7.04 -0.02 c-0.14 -1.86 -1.38 -3.2 -3.48 -3.2 c-2.02 0 -3.42 1.48 -3.56 3.22 z M166.16 5.4 l1.54 0 l0 14.6 l-1.54 0 l0 -1.82 c-0.8 1.28 -2.16 2.08 -3.94 2.08 c-2.88 0 -5.04 -2.26 -5.04 -5.26 s2.16 -5.22 5.04 -5.22 c1.78 0 3.14 0.8 3.94 2.04 l0 -6.42 z M162.44 18.86 c2.06 0 3.76 -1.64 3.76 -3.84 s-1.7 -3.84 -3.76 -3.84 c-2.2 0 -3.74 1.62 -3.74 3.84 c0 2.2 1.54 3.84 3.74 3.84 z M179.01999999999998 10.02 l1.52 0 l0 9.64 c0 2.76 -2 4.8 -4.94 4.8 c-2.36 0 -3.9 -1.12 -4.74 -2.62 l1.36 -0.5 c0.68 1.14 1.78 1.78 3.4 1.78 c2.14 0 3.36 -1.52 3.4 -3.46 l0 -1.7 c-0.8 1.18 -2.18 1.92 -3.92 1.92 c-2.92 0 -5.04 -2.2 -5.04 -5.06 c0 -2.92 2.12 -5.04 5.04 -5.04 c1.74 0 3.12 0.72 3.92 1.9 l0 -1.66 z M175.32 18.48 c2.06 0 3.72 -1.56 3.72 -3.64 c0 -2.1 -1.66 -3.66 -3.72 -3.66 c-2.2 0 -3.74 1.54 -3.74 3.66 c0 2.08 1.54 3.64 3.74 3.64 z M188.16 20.26 c-3.06 0 -5.26 -2.06 -5.26 -5.26 c0 -2.94 2.04 -5.22 5.08 -5.22 c3.18 0 5 2.22 5 5 c0 0.28 0 0.46 -0.04 0.72 l-8.52 0 c0.14 2 1.52 3.4 3.74 3.4 c1.72 0 2.82 -0.92 3.3 -1.94 l1.42 0.42 c-0.66 1.42 -2.18 2.88 -4.72 2.88 z M184.42 14.36 l7.04 -0.02 c-0.14 -1.86 -1.38 -3.2 -3.48 -3.2 c-2.02 0 -3.42 1.48 -3.56 3.22 z"></path></g>
			</g>
		</svg>
	